# xmcd CD database file
#
# Track frame offsets:
#	150
#	17582
#	25770
#	46962
#	58670
#	76195
#	91407
#	107055
#	120320
#	135995
#	154632
#	172427
#	187500
#	206542
#	226975
#	246740
#	263667
#	279077
#	298802
#
# Disc length: 4156 seconds
#
# Revision: 0
# Processed by: cddbd v1.5.1PL0 Copyright (c) Steve Scherf et al.
# Submitted via: CDex 1.51
#
DISCID=f8103a13
DTITLE=Tinsley Ellis - Georgia Blue
DYEAR=1993
DGENRE=Blues
TTITLE0=Can´t you lie
TTITLE1=Texas stomp
TTITLE2=You picked a good time
TTITLE3=I´ve made nights by myself
TTITLE4=Crime of passion
TTITLE5=Hot potato
TTITLE6=Double eyed whammy
TTITLE7=She wants to sell my monkey
TTITLE8=Look-a-py-py
TTITLE9=As the years go passing by
TTITLE10=Free man
TTITLE11=Lucky Lou
TTITLE12=Deaf, Dumb, crippled and blind
TTITLE13=So many tears
TTITLE14=Must be the Devil
TTITLE15=Dangling by a thread
TTITLE16=Mr. night time
TTITLE17=Born in Georgia
TTITLE18=Fender bender
EXTD=YEAR: 1993
EXTT0=
EXTT1=
EXTT2=
EXTT3=
EXTT4=
EXTT5=
EXTT6=
EXTT7=
EXTT8=
EXTT9=
EXTT10=
EXTT11=
EXTT12=
EXTT13=
EXTT14=
EXTT15=
EXTT16=
EXTT17=
EXTT18=
PLAYORDER=
